<svg width="76" height="32" viewBox="0 0 76 32" fill="none" xmlns="http://www.w3.org/2000/svg">
<path fill-rule="evenodd" clip-rule="evenodd" d="M10.0384 5.79887C11.4486 5.91782 12.8587 5.08517 13.74 4.02947C14.6067 2.94404 15.1795 1.48689 15.0326 0C13.7841 0.0594756 12.2418 0.832659 11.3604 1.91809C10.5525 2.85483 9.86218 4.37146 10.0384 5.79887ZM26.8134 24.9499V1.76933H35.4063C39.8423 1.76933 42.9417 4.86206 42.9417 9.3822C42.9417 13.9023 39.7836 17.0248 35.2888 17.0248H30.3681V24.9499H26.8134ZM15.018 6.08116C13.7757 6.00878 12.6422 6.45935 11.7266 6.82328C11.1374 7.05748 10.6384 7.2558 10.2588 7.2558C9.83286 7.2558 9.31332 7.04687 8.72998 6.81229C7.96563 6.50492 7.09176 6.15351 6.17536 6.17037C4.07487 6.20011 2.12126 7.40449 1.04898 9.32258C-1.15434 13.1588 0.476114 18.8387 2.60599 21.9611C3.64889 23.5075 4.89744 25.2026 6.54258 25.1431C7.26634 25.1154 7.78698 24.8918 8.32579 24.6604C8.9461 24.3939 9.5905 24.1171 10.5967 24.1171C11.568 24.1171 12.1842 24.3867 12.7757 24.6455C13.3382 24.8915 13.8783 25.1278 14.6802 25.1133C16.3841 25.0836 17.4563 23.567 18.4992 22.0206C19.6247 20.361 20.1193 18.7412 20.1943 18.4954L20.2031 18.4669C20.2013 18.4651 20.1875 18.4587 20.163 18.4473L20.1629 18.4473C19.7867 18.273 16.9111 16.9404 16.8835 13.3669C16.8558 10.3675 19.1644 8.84785 19.5278 8.60863C19.5499 8.59407 19.5648 8.58425 19.5715 8.57913C18.1027 6.37854 15.8112 6.14063 15.018 6.08116ZM49.4343 25.1285C51.6669 25.1285 53.7381 23.9836 54.6781 22.1696H54.7516V24.9501H58.0419V13.4118C58.0419 10.0663 55.3979 7.91032 51.3291 7.91032C47.5541 7.91032 44.7632 10.0961 44.6604 13.0996H47.8626C48.1269 11.6722 49.4343 10.7354 51.2263 10.7354C53.4002 10.7354 54.6194 11.7614 54.6194 13.6497V14.9284L50.1834 15.1961C46.0558 15.4489 43.8231 17.1588 43.8231 20.1326C43.8231 23.1361 46.1293 25.1285 49.4343 25.1285ZM50.3888 22.378C48.4939 22.378 47.2895 21.4561 47.2895 20.0436C47.2895 18.5864 48.4499 17.7389 50.6679 17.6051L54.6192 17.3523V18.6608C54.6192 20.8316 52.7978 22.378 50.3888 22.378ZM68.9554 25.8574C67.5306 29.9166 65.9002 31.2548 62.4336 31.2548C62.1692 31.2548 61.2879 31.2251 61.0822 31.1656V28.3851C61.3026 28.4148 61.8461 28.4446 62.1252 28.4446C63.6969 28.4446 64.5782 27.7755 65.1217 26.0358L65.4448 25.0099L59.4224 8.13368H63.1387L67.325 21.8279H67.3984L71.5847 8.13368H75.1982L68.9554 25.8574ZM30.3676 4.80247H34.4657C37.5504 4.80247 39.313 6.46779 39.313 9.39696C39.313 12.3261 37.5504 14.0063 34.451 14.0063H30.3676V4.80247Z" fill="#5A5A5A"/>
</svg>
