<svg width="75" height="31" viewBox="0 0 75 31" fill="none" xmlns="http://www.w3.org/2000/svg">
<path fill-rule="evenodd" clip-rule="evenodd" d="M34.5904 24.2739V15.211H39.2679C41.1847 15.211 42.8025 14.5688 44.1213 13.3021L44.4378 12.981C46.8469 10.3585 46.6887 6.27306 44.1213 3.84678C42.8376 2.56228 41.0792 1.86651 39.2679 1.90219H31.7593V24.2739H34.5904ZM34.5909 12.4636V4.64957H39.3396C40.3596 4.64957 41.3269 5.04206 42.048 5.75567C43.5781 7.25425 43.6133 9.75189 42.136 11.304C41.4149 12.0711 40.3948 12.4993 39.3396 12.4636H34.5909ZM57.6441 10.1621C56.4307 9.03812 54.7778 8.46723 52.6852 8.46723C49.9947 8.46723 47.9725 9.46628 46.6361 11.4466L49.1331 13.0343C50.0475 11.6785 51.296 11.0005 52.8786 11.0005C53.881 11.0005 54.8481 11.3752 55.6043 12.0531C56.3428 12.6954 56.7648 13.6231 56.7648 14.6043V15.2644C55.6746 14.6578 54.303 14.3367 52.6149 14.3367C50.6454 14.3367 49.0628 14.8005 47.8846 15.7461C46.7064 16.6916 46.1085 17.9404 46.1085 19.5282C46.0734 20.9733 46.6888 22.347 47.7791 23.2747C48.8869 24.2737 50.2937 24.7732 51.9466 24.7732C53.8985 24.7732 55.446 23.8991 56.6242 22.1507H56.7473V24.2737H59.4553V14.8362C59.4553 12.8559 58.8574 11.286 57.6441 10.1621ZM49.9598 21.4546C49.3794 21.0264 49.0277 20.3306 49.0277 19.5813C49.0277 18.7428 49.4146 18.0471 50.1709 17.494C50.9447 16.941 51.912 16.6555 53.0552 16.6555C54.6381 16.6377 55.8692 16.9945 56.7486 17.7081C56.7486 18.9212 56.2737 19.9738 55.3416 20.8658C54.4974 21.7222 53.3542 22.2039 52.1583 22.2039C51.3668 22.2217 50.593 21.9541 49.9598 21.4546ZM65.5394 30.9999L75 8.96719H71.9226L67.5441 19.9568H67.4913L63.0072 8.96719H59.9299L66.1373 23.2929L62.6204 30.9999H65.5394Z" fill="#5A5A5A"/>
<path d="M24.816 13.2482C24.816 12.3741 24.7457 11.4999 24.605 10.6436H12.665V15.5853H19.5055C19.2241 17.1731 18.3097 18.6003 16.9733 19.4923V22.7036H21.0529C23.4444 20.4736 24.816 17.1731 24.816 13.2482Z" fill="#464646"/>
<path d="M12.6656 25.8083C16.077 25.8083 18.9609 24.6666 21.0535 22.7041L16.9738 19.4929C15.8308 20.2778 14.3713 20.7239 12.6656 20.7239C9.35967 20.7239 6.56371 18.4581 5.56138 15.4253H1.35864V18.7436C3.50397 23.0788 7.88256 25.8083 12.6656 25.8083Z" fill="#5F6160"/>
<path d="M5.56204 15.4255C5.03442 13.8378 5.03442 12.1072 5.56204 10.5016V7.20117H1.35863C-0.452878 10.8227 -0.452878 15.1044 1.35863 18.726L5.56204 15.4255Z" fill="#454442"/>
<path d="M12.6656 5.20244C14.4768 5.16676 16.2177 5.86253 17.519 7.12919L21.1414 3.4541C18.8378 1.27758 15.8132 0.0822834 12.6656 0.117964C7.88256 0.117964 3.50397 2.86537 1.35864 7.20056L5.56138 10.5188C6.56371 7.46816 9.35967 5.20244 12.6656 5.20244Z" fill="#787878"/>
</svg>
