<svg width="156" height="36" viewBox="0 0 156 36" fill="none" xmlns="http://www.w3.org/2000/svg">
<path d="M100.788 15.7897C100.788 16.1059 101.048 16.3734 101.569 16.5923C102.114 16.7869 102.931 17.0058 104.022 17.249C104.765 17.3949 105.446 17.5894 106.066 17.8326C106.71 18.0515 107.342 18.3799 107.961 18.8176C108.606 19.2311 109.101 19.8148 109.448 20.5687C109.82 21.2983 110.006 22.1374 110.006 23.0859C110.006 25.2017 109.213 26.7461 107.627 27.7189C106.016 28.716 104.133 29.2146 101.977 29.2146C97.8146 29.2146 95.0394 27.7676 93.6519 24.8734L99.0411 22.2103C99.5119 23.548 100.478 24.2168 101.94 24.2168C103.055 24.2168 103.613 23.8884 103.613 23.2318C103.613 22.9156 103.353 22.6603 102.832 22.4657C102.337 22.2468 101.531 22.0036 100.416 21.7361C99.673 21.5902 98.9916 21.3956 98.3721 21.1524C97.7774 20.8849 97.158 20.5444 96.5137 20.1309C95.8943 19.7175 95.4111 19.1703 95.0642 18.4893C94.7173 17.784 94.5439 16.9814 94.5439 16.0816C94.5439 14.1359 95.2748 12.6281 96.7368 11.558C98.1987 10.4879 99.9579 9.95282 102.015 9.95282C105.657 9.95282 108.209 11.3634 109.671 14.1846L104.468 16.4829C103.922 15.4371 103.154 14.9142 102.163 14.9142C101.246 14.9142 100.788 15.206 100.788 15.7897Z" fill="white"/>
<path d="M92.6945 21.809H79.8718C80.4912 23.2926 81.8788 24.0344 84.0345 24.0344C85.3478 24.0344 86.4752 23.6088 87.4168 22.7575L91.8768 25.8219C90.068 28.0837 87.4044 29.2146 83.8859 29.2146C80.739 29.2146 78.2116 28.3148 76.3037 26.515C74.4206 24.691 73.479 22.3927 73.479 19.6202C73.479 16.872 74.4082 14.5737 76.2666 12.7254C78.1249 10.877 80.4912 9.95282 83.3655 9.95282C86.1407 9.95282 88.4327 10.8648 90.2415 12.6889C92.0503 14.4886 92.9547 16.7747 92.9547 19.5472C92.9547 20.3985 92.868 21.1524 92.6945 21.809ZM79.7975 17.6138H86.9336C86.4628 15.9113 85.2982 15.0601 83.4399 15.0601C81.5319 15.0601 80.3178 15.9113 79.7975 17.6138Z" fill="white"/>
<path d="M70.255 7.94635C69.5612 8.62733 68.7311 8.96781 67.7648 8.96781C66.7984 8.96781 65.956 8.62733 65.2374 7.94635C64.5436 7.24106 64.1967 6.41416 64.1967 5.46567C64.1967 4.51717 64.5436 3.70243 65.2374 3.02146C65.956 2.34049 66.7984 2 67.7648 2C68.7311 2 69.5612 2.34049 70.255 3.02146C70.9736 3.70243 71.3329 4.51717 71.3329 5.46567C71.3329 6.41416 70.9736 7.24106 70.255 7.94635ZM70.8497 28.7039H64.6799V10.4635H70.8497V28.7039Z" fill="white"/>
<path d="M56.3919 19.5837L62.8961 28.7039H55.983L50.7052 20.9335V28.7039H44.5355V3.1674H50.7052V18.088L55.4998 10.4635H62.636L56.3919 19.5837Z" fill="white"/>
<path d="M31.8984 29.2146C29.1232 29.2146 26.7817 28.2904 24.8737 26.4421C22.941 24.5937 21.9747 22.3076 21.9747 19.5837C21.9747 16.9085 22.941 14.6345 24.8737 12.7618C26.8312 10.8892 29.1728 9.95282 31.8984 9.95282C34.6735 9.95282 37.0151 10.8892 38.923 12.7618C40.8557 14.6345 41.822 16.9085 41.822 19.5837C41.822 22.3076 40.8557 24.5937 38.923 26.4421C37.0398 28.2904 34.6983 29.2146 31.8984 29.2146ZM31.8984 23.3777C32.9886 23.3777 33.8806 23.0251 34.5744 22.3198C35.293 21.6145 35.6523 20.7025 35.6523 19.5837C35.6523 18.465 35.293 17.553 34.5744 16.8477C33.8806 16.1424 32.9886 15.7897 31.8984 15.7897C30.8329 15.7897 29.9409 16.1545 29.2223 16.8841C28.5285 17.5894 28.1816 18.4893 28.1816 19.5837C28.1816 20.6781 28.5285 21.5902 29.2223 22.3198C29.9409 23.0251 30.8329 23.3777 31.8984 23.3777Z" fill="white"/>
<path d="M11.4475 9.95282C13.9254 9.95282 15.9944 10.877 17.6545 12.7254C19.3394 14.5737 20.1819 16.8598 20.1819 19.5837C20.1819 22.3076 19.3394 24.6059 17.6545 26.4786C15.9696 28.3026 13.9006 29.2146 11.4475 29.2146C9.19273 29.2146 7.43347 28.485 6.16978 27.0258V36H0V10.4635H6.16978V12.1417C7.43347 10.6824 9.19273 9.95282 11.4475 9.95282ZM7.24764 22.4657C7.9662 23.1953 8.90778 23.5601 10.0724 23.5601C11.2369 23.5601 12.1785 23.1953 12.8971 22.4657C13.6156 21.7118 13.9749 20.7511 13.9749 19.5837C13.9749 18.4163 13.6156 17.4557 12.8971 16.7017C12.1785 15.9721 11.2369 15.6073 10.0724 15.6073C8.90778 15.6073 7.9662 15.9721 7.24764 16.7017C6.52907 17.4557 6.16978 18.4163 6.16978 19.5837C6.16978 20.7511 6.52907 21.7118 7.24764 22.4657Z" fill="white"/>
<g filter="url(#filter0_f_997_2448)">
<path d="M151.089 18.8541H153.69V24.8004H151.089V28.7039H144.473V24.8004H133.062V18.8541L140.83 3.1674H148.19L140.347 18.8541H144.473V14.2575H151.089V18.8541Z" fill="url(#paint0_linear_997_2448)"/>
</g>
<g filter="url(#filter1_f_997_2448)">
<path d="M131.498 28.7039H113.286V23.9614L121.909 15.0236C122.851 14.0265 123.495 13.2604 123.842 12.7253C124.213 12.166 124.399 11.6187 124.399 11.0837C124.399 10.427 124.189 9.91631 123.767 9.55151C123.371 9.16238 122.813 8.96782 122.095 8.96782C120.534 8.96782 119.369 9.85551 118.601 11.6309L112.877 8.49357C113.695 6.62089 114.909 5.17383 116.52 4.15237C118.155 3.13091 119.989 2.62018 122.021 2.62018C124.498 2.62018 126.617 3.34979 128.376 4.80902C130.16 6.24393 131.052 8.21388 131.052 10.7189C131.052 12.1295 130.718 13.4671 130.049 14.7318C129.38 15.9721 128.327 17.3219 126.889 18.7811L123.359 22.3927H131.498V28.7039Z" fill="url(#paint1_linear_997_2448)"/>
</g>
<path d="M151.089 18.8541H153.69V24.8004H151.089V28.7039H144.473V24.8004H133.062V18.8541L140.83 3.1674H148.19L140.347 18.8541H144.473V14.2575H151.089V18.8541Z" fill="url(#paint2_linear_997_2448)"/>
<path d="M131.498 28.7039H113.286V23.9614L121.909 15.0236C122.851 14.0265 123.495 13.2604 123.842 12.7253C124.213 12.166 124.399 11.6187 124.399 11.0837C124.399 10.427 124.189 9.91631 123.767 9.55151C123.371 9.16238 122.813 8.96782 122.095 8.96782C120.534 8.96782 119.369 9.85551 118.601 11.6309L112.877 8.49357C113.695 6.62089 114.909 5.17383 116.52 4.15237C118.155 3.13091 119.989 2.62018 122.021 2.62018C124.498 2.62018 126.617 3.34979 128.376 4.80902C130.16 6.24393 131.052 8.21388 131.052 10.7189C131.052 12.1295 130.718 13.4671 130.049 14.7318C129.38 15.9721 128.327 17.3219 126.889 18.7811L123.359 22.3927H131.498V28.7039Z" fill="url(#paint3_linear_997_2448)"/>
<path fill-rule="evenodd" clip-rule="evenodd" d="M151.089 18.8541V14.2575H144.473V18.8541H140.347L148.189 3.16738H140.83L133.062 18.8541V24.8004H144.473V28.7039H151.089V24.8004H153.69V18.8541H151.089ZM151.398 25.1044H154V18.5501H151.398V13.9535H144.163V18.5501H140.844L148.686 2.86337H140.636L132.753 18.7841V25.1044H144.163V29.0079H151.398V25.1044Z" fill="#FFD254"/>
<path fill-rule="evenodd" clip-rule="evenodd" d="M131.808 29.0079H112.976V23.8403L121.682 14.817C121.682 14.8166 121.683 14.8162 121.683 14.8158C122.622 13.8211 123.25 13.0723 123.58 12.5621L123.582 12.5593C123.929 12.037 124.089 11.5467 124.089 11.0837C124.089 10.4961 123.904 10.0755 123.562 9.77948L123.555 9.7732L123.548 9.76649C123.225 9.44924 122.755 9.27184 122.095 9.27184C121.379 9.27184 120.765 9.47381 120.241 9.87371C119.712 10.2769 119.256 10.8945 118.886 11.7498L118.751 12.0615L112.483 8.62551L112.593 8.37383C113.432 6.45039 114.685 4.95404 116.352 3.89705L116.353 3.8959C118.041 2.84187 119.933 2.31619 122.02 2.31619C124.565 2.31619 126.755 3.0671 128.574 4.57534C130.437 6.0745 131.362 8.13464 131.362 10.7189C131.362 12.1788 131.015 13.5644 130.324 14.8719L130.322 14.874C129.635 16.1481 128.561 17.5208 127.112 18.9923C127.112 18.9923 127.112 18.9922 127.112 18.9923L124.085 22.0887H131.808V29.0079ZM123.358 22.3927L126.889 18.7811C128.327 17.3219 129.38 15.9721 130.049 14.7318C130.718 13.4671 131.052 12.1295 131.052 10.7189C131.052 8.2139 130.16 6.24395 128.376 4.80904C126.617 3.34981 124.498 2.6202 122.02 2.6202C119.989 2.6202 118.155 3.13093 116.52 4.15239C114.909 5.17385 113.695 6.62091 112.877 8.49359L118.601 11.6309C118.642 11.5355 118.685 11.4427 118.728 11.3525C119.495 9.76271 120.618 8.96784 122.095 8.96784C122.813 8.96784 123.371 9.1624 123.767 9.55153C124.189 9.91633 124.399 10.4271 124.399 11.0837C124.399 11.6188 124.213 12.166 123.842 12.7253C123.495 13.2604 122.851 14.0265 121.909 15.0236L113.286 23.9614V28.7039H131.498V22.3927H123.358Z" fill="#FFD254"/>
<defs>
<filter id="filter0_f_997_2448" x="131.062" y="1.1674" width="24.6279" height="29.5365" filterUnits="userSpaceOnUse" color-interpolation-filters="sRGB">
<feFlood flood-opacity="0" result="BackgroundImageFix"/>
<feBlend mode="normal" in="SourceGraphic" in2="BackgroundImageFix" result="shape"/>
<feGaussianBlur stdDeviation="1" result="effect1_foregroundBlur_997_2448"/>
</filter>
<filter id="filter1_f_997_2448" x="110.877" y="0.620178" width="22.6208" height="30.0837" filterUnits="userSpaceOnUse" color-interpolation-filters="sRGB">
<feFlood flood-opacity="0" result="BackgroundImageFix"/>
<feBlend mode="normal" in="SourceGraphic" in2="BackgroundImageFix" result="shape"/>
<feGaussianBlur stdDeviation="1" result="effect1_foregroundBlur_997_2448"/>
</filter>
<linearGradient id="paint0_linear_997_2448" x1="133.257" y1="-0.0246549" x2="133.257" y2="28.7039" gradientUnits="userSpaceOnUse">
<stop stop-color="#FEDD5C"/>
<stop offset="1" stop-color="#FCA411"/>
</linearGradient>
<linearGradient id="paint1_linear_997_2448" x1="133.257" y1="-0.02467" x2="133.257" y2="28.7039" gradientUnits="userSpaceOnUse">
<stop stop-color="#FEDD5C"/>
<stop offset="1" stop-color="#FCA411"/>
</linearGradient>
<linearGradient id="paint2_linear_997_2448" x1="133.257" y1="-0.0246549" x2="133.257" y2="28.7039" gradientUnits="userSpaceOnUse">
<stop stop-color="#FEDD5C"/>
<stop offset="1" stop-color="#FCA411"/>
</linearGradient>
<linearGradient id="paint3_linear_997_2448" x1="133.257" y1="-0.02467" x2="133.257" y2="28.7039" gradientUnits="userSpaceOnUse">
<stop stop-color="#FEDD5C"/>
<stop offset="1" stop-color="#FCA411"/>
</linearGradient>
</defs>
</svg>
