<svg width="68" height="42" viewBox="0 0 68 42" fill="none" xmlns="http://www.w3.org/2000/svg">
<path fill-rule="evenodd" clip-rule="evenodd" d="M47.5288 41.4184C58.8348 41.4184 68.0001 32.1467 68.0001 20.7094C68.0001 9.2722 58.8348 0.000488281 47.5288 0.000488281C42.4617 0.000488281 37.8247 1.86278 34.25 4.94767C30.6753 1.86285 26.0383 0.000610227 20.9713 0.000610227C9.66532 0.000610227 0.5 9.27233 0.5 20.7096C0.5 32.1468 9.66532 41.4185 20.9713 41.4185C26.0383 41.4185 30.6754 39.5562 34.2501 36.4713C37.8248 39.5562 42.4618 41.4184 47.5288 41.4184Z" fill="#3E3E3E"/>
<path fill-rule="evenodd" clip-rule="evenodd" d="M34.25 36.4713C38.6516 32.6729 41.4426 27.0209 41.4426 20.7094C41.4426 14.398 38.6516 8.74602 34.25 4.94761C37.8247 1.86275 42.4617 0.000488281 47.5287 0.000488281C58.8347 0.000488281 68 9.2722 68 20.7094C68 32.1467 58.8347 41.4184 47.5287 41.4184C42.4617 41.4184 37.8247 39.5561 34.25 36.4713Z" fill="#5A5A5A"/>
<path fill-rule="evenodd" clip-rule="evenodd" d="M34.25 36.4709C38.6515 32.6725 41.4425 27.0205 41.4425 20.7091C41.4425 14.3977 38.6515 8.74567 34.25 4.94727C29.8484 8.74567 27.0574 14.3977 27.0574 20.7091C27.0574 27.0205 29.8484 32.6725 34.25 36.4709Z" fill="#6B6B6B"/>
</svg>
