<svg width="82" height="19" viewBox="0 0 82 19" fill="none" xmlns="http://www.w3.org/2000/svg">
<path d="M0.5 2.27546C0.5 1.18659 1.36077 0.326172 2.44928 0.326172H7.74133C11.9698 0.326172 14.5272 2.83234 14.5272 6.45301V6.50354C14.5272 10.6053 11.3367 12.7325 7.36165 12.7325H4.39929V16.4037C4.39929 17.4926 3.53815 18.3533 2.44928 18.3533C1.36077 18.3533 0.5 17.4926 0.5 16.4037V2.27546ZM7.48833 9.26379C9.43798 9.26379 10.5774 8.09913 10.5774 6.58005V6.52916C10.5774 4.78235 9.36182 3.84542 7.41218 3.84542H4.39929V9.26379H7.48833V9.26379Z" fill="#5A5A5A"/>
<path d="M13.9061 15.6951L20.0838 1.74405C20.5144 0.781858 21.2994 0.199707 22.363 0.199707H22.5907C23.6543 0.199707 24.4137 0.781858 24.8442 1.74405L31.022 15.6951C31.1486 15.9737 31.2244 16.2267 31.2244 16.4797C31.2244 17.5177 30.4142 18.3536 29.3762 18.3536C28.4645 18.3536 27.8568 17.8216 27.502 17.0117L26.3121 14.2262H18.5142L17.2734 17.138C16.9442 17.8974 16.2859 18.3532 15.4757 18.3532C14.4633 18.3532 13.678 17.543 13.678 16.5299C13.6783 16.252 13.7794 15.9737 13.9061 15.6951ZM24.8691 10.7831L22.4135 4.93415L19.9575 10.7831H24.8691Z" fill="#5A5A5A"/>
<path d="M35.349 11.3652L29.6271 3.5923C29.3485 3.21226 29.146 2.75679 29.146 2.19954C29.146 1.16156 30.0068 0.326045 31.0953 0.326045C31.9817 0.326045 32.5386 0.80714 33.0197 1.51597L37.3239 7.71932L41.7039 1.46508C42.185 0.756252 42.7675 0.300781 43.5778 0.300781C44.7677 0.300781 45.4769 1.13593 45.4769 2.19954C45.4769 2.73152 45.2235 3.21226 44.9702 3.56667L39.2479 11.2891V16.4036C39.2479 17.4924 38.3871 18.3532 37.2986 18.3532C36.2098 18.3532 35.349 17.4924 35.349 16.4036V11.3652V11.3652Z" fill="#5A5A5A"/>
<path d="M45.5938 9.39056V9.33967C45.5938 4.30134 49.3916 0.174316 54.8356 0.174316C57.4937 0.174316 59.2914 0.883147 60.7603 1.97202C61.1653 2.27591 61.5197 2.83279 61.5197 3.51636C61.5197 4.57997 60.6589 5.41548 59.5953 5.41548C59.0637 5.41548 58.7093 5.213 58.4307 5.0358C57.3421 4.22555 56.2027 3.76936 54.81 3.76936C51.8224 3.76936 49.6702 6.25099 49.6702 9.28914V9.33967C49.6702 12.3782 51.7718 14.91 54.81 14.91C56.4561 14.91 57.5446 14.4033 58.6588 13.5176C58.9626 13.2646 59.3679 13.087 59.8234 13.087C60.8109 13.087 61.6464 13.8973 61.6464 14.8847C61.6464 15.4925 61.3425 15.9736 60.9881 16.2771C59.3932 17.6695 57.5194 18.5054 54.6833 18.5054C49.4678 18.5054 45.5938 14.4794 45.5938 9.39056Z" fill="#5A5A5A"/>
<path d="M62.6628 9.39056V9.33967C62.6628 4.30134 66.6376 0.174316 72.1068 0.174316C77.5761 0.174316 81.5003 4.25045 81.5003 9.28914V9.33967C81.5003 14.3784 77.5252 18.5054 72.0563 18.5054C66.5874 18.5054 62.6628 14.4289 62.6628 9.39056ZM77.4238 9.39056V9.33967C77.4238 6.30151 75.1959 3.76936 72.0563 3.76936C68.9167 3.76936 66.7393 6.25099 66.7393 9.28914V9.33967C66.7393 12.3782 68.9676 14.91 72.1068 14.91C75.2464 14.91 77.4238 12.4287 77.4238 9.39056Z" fill="#5A5A5A"/>
</svg>
