<svg width="83" height="30" viewBox="0 0 83 30" fill="none" xmlns="http://www.w3.org/2000/svg">
<path fill-rule="evenodd" clip-rule="evenodd" d="M0.154305 21.519L0.154308 21.5189L0.15431 21.5189C0.230531 21.0858 0.304385 20.6661 0.389284 20.2464C0.748844 18.3479 1.1109 16.452 1.47296 14.5561L1.47297 14.5561C1.83503 12.6601 2.19709 10.7642 2.55666 8.86572C2.6066 8.62528 2.67651 8.46499 2.91622 8.42492C4.78396 8.14441 6.66168 7.94405 8.52942 8.4149C10.1574 8.81563 11.2961 9.96772 11.4858 11.3202C11.8754 14.0151 10.3073 16.169 7.98009 16.9404C6.75158 17.3411 5.50309 17.4413 4.23462 17.3211C3.93499 17.291 3.8451 17.3712 3.79516 17.6617C3.52548 19.1344 3.24582 20.597 2.95617 22.0597C2.9362 22.1799 2.82633 22.3702 2.75642 22.3702C2.07762 22.3852 1.40997 22.3834 0.716022 22.3815C0.480775 22.3809 0.242506 22.3802 -0.000244141 22.3802C0.0546815 22.0851 0.104984 21.7992 0.154295 21.519L0.154305 21.519ZM4.86299 14.9463L4.86303 14.9463C5.25371 14.9569 5.62263 14.967 5.98233 14.9261C7.02107 14.8159 7.85007 14.3451 8.3195 13.3533C8.84886 12.2312 8.46932 11.0391 7.47053 10.6884C6.76139 10.438 6.03227 10.4881 5.30316 10.5883C5.21326 10.5983 5.09341 10.7385 5.07343 10.8287C4.9345 11.5589 4.79557 12.2922 4.65147 13.0528L4.6508 13.0563L4.65077 13.0565L4.64982 13.0615L4.64912 13.0652L4.64902 13.0658C4.53491 13.6681 4.41755 14.2875 4.29438 14.9361C4.48963 14.9361 4.67873 14.9413 4.86299 14.9463ZM17.2574 20.9495L17.2574 20.9495C16.9449 21.2996 16.648 21.6322 16.2999 21.8993C15.2511 22.7107 14.0526 22.8911 12.8441 22.33C11.6455 21.779 11.1561 20.7071 11.1062 19.4448C10.9963 16.79 11.9252 14.596 14.1525 13.0732C15.5508 12.1115 17.1588 11.821 18.8268 11.9111C19.3785 11.9437 19.9261 12.0397 20.4749 12.136C20.7705 12.1878 21.0665 12.2397 21.3637 12.2818C21.7033 12.3319 21.7533 12.5222 21.6933 12.8128C21.6132 13.2318 21.5321 13.6503 21.4511 14.0686C21.1486 15.6306 20.8468 17.1889 20.5947 18.7535C20.4501 19.6492 20.3924 20.5667 20.3353 21.4751C20.3253 21.6335 20.3154 21.7916 20.305 21.9493C20.285 22.2699 20.2051 22.4002 19.8755 22.3901C19.2563 22.3701 18.637 22.3701 18.0178 22.3901C17.6982 22.4002 17.5883 22.2799 17.6183 21.9694C17.6468 21.6261 17.6651 21.2727 17.6842 20.9054L17.6842 20.9047L17.6844 20.9005L17.6845 20.8989C17.6921 20.7537 17.6997 20.6064 17.7082 20.4566C17.5501 20.6215 17.4021 20.7873 17.2574 20.9494L17.2574 20.9495ZM18.4075 14.2654C17.4387 13.9949 16.6297 14.1853 15.9505 14.7563C14.6721 15.8383 14.0928 17.2408 14.2026 18.9139C14.2326 19.4248 14.4324 19.9157 14.9717 20.1361C15.5111 20.3565 16.0005 20.1962 16.42 19.8355C16.6696 19.6151 16.9094 19.3647 17.0891 19.0842C17.7936 18.0057 17.9861 16.7891 18.1815 15.5533V15.5533C18.2493 15.1247 18.3175 14.6937 18.4075 14.2654ZM32.5605 19.8759C33.1099 21.6391 34.618 22.6209 37.2648 22.6209C39.0826 22.5708 40.8904 21.5389 42.0191 19.4151C42.6183 18.273 42.8381 17.0508 42.7582 15.7685C42.6883 14.5362 42.1989 13.4943 41.2001 12.753C40.1513 11.9716 38.9528 11.8113 37.6743 11.9515C33.3995 12.4324 31.6516 16.9706 32.5605 19.8759ZM35.405 18.4051V18.405C35.4061 18.3539 35.4072 18.3031 35.4072 18.2534C35.4371 17.1013 35.7168 16.0293 36.406 15.0776C36.7156 14.6568 37.1051 14.3362 37.6245 14.216C38.6832 13.9756 39.5522 14.5867 39.652 15.7388C39.7719 17.1514 39.4323 18.4537 38.5434 19.5858C38.2038 20.0065 37.7743 20.2971 37.225 20.3472C36.2362 20.4373 35.4871 19.7661 35.4072 18.7142C35.4005 18.6138 35.4028 18.5089 35.405 18.4055V18.4054V18.4054V18.4053V18.4051ZM45.1352 12.1615H47.6722C47.6322 12.7025 47.5923 13.2234 47.5423 13.7544C47.6348 13.668 47.7243 13.5826 47.812 13.4989L47.8121 13.4988L47.8122 13.4987C47.999 13.3204 48.1779 13.1497 48.3613 12.993C49.3501 12.1314 50.4788 11.7507 51.7872 11.9611C52.8659 12.1414 53.615 12.9329 53.7348 14.0449C53.8651 15.202 53.6487 16.3244 53.4328 17.4443L53.3853 17.6915C53.298 18.1447 53.2117 18.5979 53.1255 19.0508L53.1252 19.0523L53.1248 19.0545L53.1244 19.0568L53.1243 19.0569L53.1243 19.057L53.1243 19.0571C52.9346 20.0538 52.7451 21.0489 52.5463 22.0394C52.5163 22.1696 52.3665 22.36 52.2666 22.37C51.4076 22.39 50.5487 22.38 49.6897 22.37C49.6609 22.37 49.6321 22.3544 49.5884 22.3307C49.5714 22.3215 49.5522 22.3111 49.5299 22.2999C49.6897 21.4684 49.8495 20.6268 49.9994 19.7853C50.2291 18.493 50.4488 17.2106 50.6486 15.9183C50.6885 15.6979 50.6685 15.4675 50.6386 15.2471C50.5587 14.4757 49.9894 14.125 49.2503 14.3555C48.5311 14.5859 48.1017 15.1469 47.7521 15.768C47.2327 16.6797 47.0529 17.6915 46.8731 18.7033C46.8281 18.954 46.7836 19.2041 46.7391 19.4539L46.739 19.4545L46.7389 19.4551L46.7389 19.4552L46.7389 19.4554C46.5861 20.3136 46.434 21.1685 46.2639 22.0294C46.2339 22.1596 46.0841 22.36 45.9842 22.37C45.2838 22.394 44.5771 22.3925 43.8235 22.3909C43.6315 22.3905 43.4364 22.39 43.2375 22.39C43.8967 18.9438 44.516 15.5677 45.1352 12.1615ZM59.5375 20.2859C58.4788 20.1556 57.7697 19.4143 57.8396 18.3724C58.0604 18.3724 58.2802 18.3758 58.4988 18.3791C58.9327 18.3858 59.3621 18.3924 59.7872 18.3724C60.816 18.3123 61.8247 18.142 62.7636 17.6711C63.9622 17.07 64.5215 16.0782 64.4316 14.7859C64.3417 13.4735 63.6326 12.5218 62.3641 12.1411C60.4664 11.5701 58.7185 11.9708 57.2303 13.2431C55.4225 14.7859 54.7433 16.8296 55.003 19.1638C55.1828 20.8168 56.0817 21.999 57.7197 22.4197C59.4776 22.8706 61.2055 22.6301 62.8735 21.9489C62.9933 21.8988 63.1332 21.7085 63.1232 21.5882C63.0992 21.0995 63.0497 20.6107 63.0001 20.1219L63.0001 20.1217C62.9877 19.9994 62.9754 19.8772 62.9634 19.7549C62.9306 19.7549 62.9062 19.7532 62.8874 19.7519C62.8605 19.7501 62.8453 19.749 62.8335 19.7549C62.7237 19.795 62.6138 19.8351 62.5139 19.8751C61.5551 20.2458 60.5663 20.4061 59.5375 20.2859ZM61.0854 15.8477C60.4761 16.1683 58.898 16.3586 58.1289 16.1983C58.2887 14.8659 59.697 13.824 60.8856 14.1146C61.2851 14.2147 61.5748 14.4251 61.6447 14.8559C61.7146 15.2767 61.5048 15.6273 61.0854 15.8477ZM67.8176 18.4127C67.7277 19.3945 68.4269 20.1458 69.4956 20.2861C70.4944 20.4063 71.4532 20.256 72.3921 19.9154C72.4786 19.8829 72.5621 19.8503 72.6539 19.8146C72.7316 19.7843 72.8152 19.7518 72.9114 19.715C72.9309 19.9268 72.9525 20.1342 72.9738 20.3389L72.974 20.3404C73.0181 20.7646 73.061 21.1765 73.0812 21.5884C73.0912 21.7087 72.9514 21.899 72.8415 21.9491C71.1436 22.6504 69.3957 22.8908 67.6078 22.3999C65.9998 21.9591 65.1608 20.787 64.9611 19.1841C64.7114 17.1303 65.2407 15.277 66.669 13.7542C68.2071 12.1213 70.0948 11.5402 72.2722 12.1413C73.6006 12.512 74.3097 13.4737 74.3896 14.8262C74.4695 16.1486 73.8703 17.1404 72.6218 17.7214C71.3633 18.3025 70.0249 18.3926 68.6666 18.4227C68.3969 18.4127 68.1172 18.4127 67.8176 18.4127ZM68.643 16.25L68.6431 16.25C69.0862 16.2277 69.513 16.2063 69.9348 16.1489C70.3344 16.0988 70.7339 15.9786 71.0934 15.8083C71.483 15.638 71.6727 15.2774 71.6128 14.8366C71.5529 14.4158 71.2732 14.2154 70.8837 14.1152C69.7051 13.7947 68.2369 14.8766 68.107 16.2792C68.2887 16.2678 68.4671 16.2588 68.643 16.25ZM74.9389 20.286C74.809 20.9672 74.6892 21.6384 74.5593 22.3798C74.7594 22.3798 74.9565 22.3802 75.1514 22.3806C75.9199 22.3822 76.6529 22.3837 77.3859 22.3597C77.4558 22.3597 77.5657 22.1694 77.5857 22.0492C77.6875 21.5489 77.782 21.0461 77.8764 20.5434C78.0505 19.6168 78.2245 18.6907 78.4446 17.7814C78.934 15.7577 79.763 15.0565 81.7306 14.796C81.8105 14.786 81.9404 14.6958 81.9604 14.6257C82.0857 14.0499 82.198 13.4696 82.3145 12.8677C82.3744 12.5586 82.4353 12.2437 82.4997 11.9208C80.602 11.7204 79.5433 12.8224 78.6244 14.1749L78.6391 13.9804C78.6842 13.3819 78.7301 12.7728 78.7842 12.1312C78.5766 12.1312 78.3728 12.1305 78.1719 12.1299C77.5803 12.128 77.0137 12.1262 76.447 12.1412C76.3671 12.1512 76.2173 12.3315 76.2073 12.4417C75.9942 15.0166 75.4898 17.5349 74.9858 20.0516L74.9389 20.286Z" fill="#5A5A5A"/>
<path fill-rule="evenodd" clip-rule="evenodd" d="M48.4951 0.0760751C48.3939 0.0493079 48.2928 0.0225408 48.1917 0C47.8821 0 47.5724 0 47.2428 0.0100182C47.1303 0.0326019 47.0177 0.057222 46.9042 0.0820423C46.766 0.112274 46.6264 0.142802 46.4838 0.170309C44.9556 0.460836 43.5174 0.9918 42.129 1.69307C39.1227 3.21584 36.4259 5.18942 34.0089 7.52366C32.4008 9.06646 30.8427 10.6794 29.3345 12.3324C26.6877 15.2377 24.4205 18.4335 22.6127 21.9398C21.6838 23.7531 20.8448 25.6065 20.4653 27.6201C20.3954 27.9908 20.5152 28.4216 20.6351 28.7923C20.685 28.9425 20.9647 29.0527 21.1545 29.1128C21.2044 29.1329 21.3542 28.8824 21.4241 28.7422C21.4489 28.6878 21.4744 28.6322 21.5003 28.5753C21.9341 27.625 22.5207 26.34 23.0295 25.4893C24.1082 23.6861 24.9598 22.2905 26.1684 20.5773C28.106 17.8223 30.3701 15.1193 32.7472 12.7349C34.9945 10.4808 37.245 8.46537 40.0715 6.9426C41.37 6.25135 42.6984 5.57011 44.0567 5.00909C46.4039 4.03733 48.8509 3.37613 51.3678 3.00546C51.6375 2.96538 51.9971 2.755 52.087 2.5346C52.1669 2.33424 51.9771 1.95355 51.7873 1.7632C51.0183 0.971764 50.1194 0.370673 49.0007 0.190345C48.8322 0.1653 48.6636 0.120687 48.4951 0.0760751ZM25.6289 13.7445C26.1083 12.4421 26.3481 11.0896 26.378 9.6871C26.3647 9.53683 26.3536 9.38655 26.3425 9.23628C26.3203 8.93574 26.2981 8.63519 26.2582 8.33464C25.9885 6.01042 24.9897 4.03684 23.4016 2.34377C23.2119 2.15342 22.9522 2.00315 22.6925 1.91298C22.4328 1.8128 22.263 1.96308 22.283 2.26362C22.2835 2.26997 22.284 2.27632 22.2844 2.28268C22.3039 2.53727 22.3241 2.80093 22.3729 3.05506C22.443 3.45539 22.5127 3.85621 22.5825 4.25729C22.8304 5.68295 23.0789 7.11203 23.3517 8.535C23.6214 9.96761 23.921 11.3902 24.2406 12.8028C24.3505 13.2536 24.5303 13.7044 24.75 14.1252C24.9198 14.4457 25.1595 14.4157 25.3792 14.1252L25.3792 14.1251C25.4791 14.0049 25.579 13.8847 25.6289 13.7445Z" fill="#5A5A5A"/>
</svg>
