<svg width="61" height="53" viewBox="0 0 61 53" fill="none" xmlns="http://www.w3.org/2000/svg">
<path fill-rule="evenodd" clip-rule="evenodd" d="M7.70026 36.7227H3.03342C2.71406 36.7227 2.44245 36.9548 2.39265 37.2699L0.50514 49.2371C0.467624 49.4733 0.6505 49.6862 0.890027 49.6862H3.11802C3.43738 49.6862 3.70899 49.4541 3.75879 49.1383L4.26788 45.9106C4.31698 45.5945 4.58926 45.3627 4.90795 45.3627H6.38531C9.45953 45.3627 11.2336 43.875 11.6972 40.9271C11.906 39.6374 11.7061 38.624 11.102 37.9141C10.4388 37.1351 9.26216 36.7227 7.70026 36.7227ZM8.23868 41.0935C7.98353 42.7681 6.70401 42.7681 5.46684 42.7681H4.76259L5.25665 39.6406C5.28599 39.4517 5.44975 39.3125 5.64084 39.3125H5.96361C6.80636 39.3125 7.60142 39.3124 8.01227 39.7928C8.257 40.0795 8.33216 40.5052 8.23868 41.0935ZM21.6506 41.0398H19.4158C19.2253 41.0398 19.0608 41.1791 19.0315 41.3682L18.9326 41.9932L18.7763 41.7668C18.2925 41.0645 17.2138 40.8298 16.1369 40.8298C13.6671 40.8298 11.558 42.7003 11.1471 45.3242C10.9336 46.6328 11.2371 47.8843 11.9795 48.7571C12.6607 49.5595 13.6352 49.8939 14.7945 49.8939C16.7843 49.8939 17.888 48.6144 17.888 48.6144L17.7882 49.2355C17.7506 49.473 17.9334 49.6858 18.1716 49.6858H20.1847C20.5049 49.6858 20.7749 49.4537 20.8255 49.1379L22.0334 41.4889C22.0716 41.2536 21.8894 41.0398 21.6506 41.0398ZM18.5353 45.3895C18.3197 46.6663 17.3063 47.5233 16.0141 47.5233C15.3651 47.5233 14.8463 47.3152 14.5134 46.9208C14.1831 46.5292 14.0574 45.9715 14.1626 45.3507C14.3641 44.0847 15.3945 43.1998 16.6671 43.1998C17.3016 43.1998 17.8176 43.4105 18.1573 43.8084C18.4978 44.2104 18.6329 44.7712 18.5353 45.3895ZM31.3072 41.0395H33.5531C33.8676 41.0395 34.0511 41.3922 33.8723 41.6502L26.4029 52.432C26.282 52.6066 26.0827 52.7105 25.8699 52.7105H23.6268C23.311 52.7105 23.1266 52.3549 23.3095 52.0963L25.6353 48.8133L23.1617 41.5539C23.0761 41.3016 23.2624 41.0395 23.5308 41.0395H25.7376C26.0243 41.0395 26.2773 41.2277 26.36 41.5021L27.6727 45.8866L30.7703 41.324C30.8916 41.1459 31.0931 41.0395 31.3072 41.0395Z" fill="#3E3E3E"/>
<path fill-rule="evenodd" clip-rule="evenodd" d="M55.6564 49.2373L57.5717 37.0512C57.6011 36.8621 57.765 36.7228 57.9554 36.7222H60.1116C60.3497 36.7222 60.5325 36.9356 60.495 37.1719L58.6062 49.1384C58.5569 49.4542 58.2854 49.6863 57.9655 49.6863H56.0398C55.8017 49.6863 55.6188 49.4735 55.6564 49.2373ZM40.9883 36.7228H36.3206C36.002 36.7228 35.7304 36.9549 35.6805 37.2701L33.793 49.2373C33.7554 49.4735 33.9383 49.6863 34.1767 49.6863H36.5716C36.7943 49.6863 36.9847 49.524 37.0194 49.3029L37.555 45.9107C37.6043 45.5946 37.8765 45.3628 38.1951 45.3628H39.6717C42.7466 45.3628 44.5204 43.8751 44.9843 40.9272C45.1937 39.6375 44.9925 38.6242 44.3887 37.9143C43.7259 37.1352 42.5502 36.7228 40.9883 36.7228ZM41.5267 41.0937C41.2722 42.7683 39.9926 42.7683 38.7547 42.7683H38.0511L38.546 39.6407C38.5753 39.4519 38.7376 39.3126 38.9293 39.3126H39.2521C40.0943 39.3126 40.8901 39.3126 41.3006 39.7929C41.5456 40.0796 41.6202 40.5053 41.5267 41.0937ZM54.9374 41.04H52.7041C52.5121 41.04 52.3491 41.1792 52.3204 41.3684L52.2216 41.9933L52.0646 41.7669C51.5808 41.0646 50.5027 40.83 49.4259 40.83C46.9561 40.83 44.8475 42.7004 44.4367 45.3243C44.2239 46.6329 44.5261 47.8844 45.2685 48.7572C45.9509 49.5597 46.9242 49.8941 48.0835 49.8941C50.0732 49.8941 51.1766 48.6145 51.1766 48.6145L51.0771 49.2357C51.0396 49.4731 51.2224 49.686 51.4621 49.686H53.4743C53.7929 49.686 54.0645 49.4539 54.1144 49.1381L55.3229 41.489C55.3599 41.2538 55.1771 41.04 54.9374 41.04ZM51.8224 45.3897C51.608 46.6664 50.5934 47.5235 49.3008 47.5235C48.6531 47.5235 48.1333 47.3154 47.8002 46.9209C47.4699 46.5294 47.3458 45.9717 47.4497 45.3508C47.6521 44.0848 48.6812 43.2 49.9539 43.2C50.5886 43.2 51.1043 43.4106 51.4444 43.8085C51.7861 44.2105 51.9213 44.7713 51.8224 45.3897Z" fill="#5A5A5A"/>
<path d="M24.9714 32.4419L25.5452 28.7977L24.2672 28.768H18.1646L22.4056 1.87652C22.4186 1.79533 22.4615 1.71964 22.524 1.66589C22.5866 1.61214 22.6668 1.58252 22.7501 1.58252H33.0402C36.4564 1.58252 38.8138 2.29339 40.0447 3.69648C40.6217 4.35472 40.9892 5.04254 41.167 5.79949C41.3533 6.59376 41.3568 7.54268 41.1746 8.70005L41.1613 8.78453V9.5261L41.7386 9.85303C42.2246 10.1108 42.6105 10.4059 42.9067 10.7438C43.4006 11.3066 43.7199 12.0218 43.8547 12.8698C43.994 13.742 43.9479 14.7798 43.7199 15.9547C43.4565 17.3063 43.0308 18.4834 42.4561 19.4466C41.9271 20.334 41.2536 21.07 40.454 21.6406C39.6904 22.1825 38.7831 22.594 37.7574 22.8574C36.7633 23.116 35.6303 23.2467 34.3873 23.2467H33.5865C33.014 23.2467 32.4575 23.4529 32.0211 23.8227C31.5834 24.2001 31.2935 24.7155 31.2048 25.2795L31.1445 25.6076L30.1308 32.0304L30.0847 32.2663C30.0727 32.3412 30.0518 32.3784 30.0212 32.4037C29.9937 32.4264 29.9543 32.4419 29.9157 32.4419H24.9714Z" fill="#3E3E3E"/>
<path d="M42.2849 8.87061C42.2542 9.06696 42.2192 9.26771 42.1797 9.47395C40.8225 16.4412 36.18 18.8481 30.2504 18.8481H27.2315C26.5064 18.8481 25.8954 19.3746 25.7823 20.0899L24.2365 29.8931L23.7988 32.6717C23.7252 33.1413 24.0875 33.5648 24.5611 33.5648H29.916C30.5501 33.5648 31.0885 33.104 31.1883 32.4788L31.2411 32.2066L32.2494 25.8086L32.3141 25.4578C32.4126 24.8303 32.9523 24.3696 33.5864 24.3696H34.3873C39.5751 24.3696 43.6365 22.2633 44.8235 16.168C45.3193 13.6218 45.0626 11.4958 43.7505 10.0005C43.3535 9.54965 42.8609 9.17556 42.2849 8.87061Z" fill="#5A5A5A"/>
<path d="M40.8646 8.30446C40.6574 8.24411 40.4433 8.18926 40.2238 8.1399C40.0034 8.09165 39.7773 8.04886 39.5449 8.01156C38.7308 7.87991 37.839 7.81738 36.8834 7.81738H28.8181C28.6195 7.81738 28.431 7.86235 28.262 7.94354C27.89 8.12234 27.6137 8.47451 27.5468 8.90563L25.8308 19.7728L25.7815 20.0898C25.8945 19.3746 26.5056 18.848 27.2307 18.848H30.2496C36.1792 18.848 40.822 16.44 42.1789 9.47389C42.2193 9.26765 42.2534 9.0669 42.2841 8.87054C41.9408 8.68843 41.5688 8.53265 41.1684 8.39989C41.0698 8.36698 40.9678 8.33518 40.8646 8.30446Z" fill="#363636"/>
<path d="M27.5467 8.9055C27.6137 8.47436 27.8903 8.12222 28.262 7.94449C28.4322 7.8633 28.6198 7.81833 28.8181 7.81833H36.8837C37.8393 7.81833 38.731 7.88086 39.5448 8.01251C39.7776 8.04981 40.0037 8.0926 40.2241 8.14085C40.4436 8.19024 40.6574 8.24509 40.8648 8.30541C40.9678 8.33613 41.0698 8.36793 41.1696 8.39977C41.57 8.53249 41.942 8.68938 42.2853 8.87039C42.6892 6.29566 42.2821 4.54261 40.8901 2.95519C39.3554 1.20764 36.5853 0.459473 33.0408 0.459473H22.7505C22.0264 0.459473 21.409 0.986021 21.2969 1.70239L17.011 28.8703C16.9264 29.4078 17.341 29.8929 17.8829 29.8929H24.236L25.831 19.7727L27.5467 8.9055Z" fill="#3E3E3E"/>
</svg>
