<svg width="75" height="25" viewBox="0 0 75 25" fill="none" xmlns="http://www.w3.org/2000/svg">
<path fill-rule="evenodd" clip-rule="evenodd" d="M19.1792 24.4518H12.7577L7.94228 6.00142C7.71372 5.15271 7.22843 4.40239 6.51457 4.04876C4.73307 3.16007 2.76998 2.4528 0.628418 2.0961V1.38576H10.973C12.4007 1.38576 13.4715 2.4528 13.65 3.69205L16.1485 17.0009L22.5669 1.38576H28.81L19.1792 24.4518ZM32.3793 24.4518H26.3147L31.3086 1.38576H37.3732L32.3793 24.4518ZM45.2193 7.77597C45.3977 6.53364 46.4685 5.8233 47.7178 5.8233C49.6809 5.64495 51.8193 6.00166 53.6039 6.88727L54.6747 1.92105C52.8901 1.21071 50.927 0.854004 49.1455 0.854004C43.2593 0.854004 38.9762 4.04899 38.9762 8.48323C38.9762 11.8566 42.0101 13.6278 44.1516 14.6949C46.4685 15.7588 47.3608 16.4692 47.1824 17.5331C47.1824 19.1291 45.3977 19.8394 43.6162 19.8394C41.4747 19.8394 39.3331 19.3074 37.3732 18.4188L36.3024 23.3881C38.4439 24.2737 40.7608 24.6304 42.9024 24.6304C49.5024 24.8057 53.6039 21.6137 53.6039 16.8228C53.6039 10.7895 45.2193 10.4359 45.2193 7.77597V7.77597ZM74.8284 24.4518L70.0131 1.38576H64.8408C63.77 1.38576 62.6992 2.0961 62.3423 3.16007L53.4254 24.4518H59.6685L60.9146 21.0815H68.5854L69.2992 24.4518H74.8284ZM65.7332 7.59749L67.5147 16.2907H62.5208L65.7332 7.59749Z" fill="#5A5A5A"/>
</svg>
